# xmcd
#
# Track frame offsets:
#	150
#	27493
#	39055
#	110029
#	166008
#	174806
#	198243
#	223482
#	244897
#	284847
#
# Disc length: 3917 seconds
#
# Revision: 1
# Processed by: cddbd v1.5.2PL0 Copyright (c) Steve Scherf et al.
# Submitted via: audiograbber 1.83.01
#
DISCID=8e0f4b0a
DTITLE=Von Weber - Euryanthe - Euryanthe CD 2
DYEAR=1953
DGENRE=Oper
TTITLE0=Act 2 - Adolar - Wehen mir Lüfte Ruh'
TTITLE1=Act 2 - E+A - Hin nimm die Seele mein
TTITLE2=Act 2 - Chor - Leuchtend füllt die Königshallen
TTITLE3=Act 3 - E - Hier weiltest du !
TTITLE4=Act 3 - Chor - Die Tale dampfen, die höhen glüh'n
TTITLE5=Act 3 - E - Laßt mich hier in Ruh' erblassen
TTITLE6=Act 3 - Orchester - Dance
TTITLE7=Act 3 - Bertha - Der Mai bringt frische Rosen dar
TTITLE8=Act 3 - Eglantine - Ich kann nicht weiter
TTITLE9=Act 3 - Chor - O Wonne !  Sie atmet !
EXTD=
EXTT0=
EXTT1=
EXTT2=
EXTT3=
EXTT4=
EXTT5=
EXTT6=
EXTT7=
EXTT8=
EXTT9=
PLAYORDER=
